<?xml version="1.0" encoding="utf-8"?>
<svg version="1.1" xmlns="http://www.w3.org/2000/svg" xmlns:xlink="http://www.w3.org/1999/xlink" 
	 viewBox="0 0 42.281 21.487" xml:space="preserve">
<path style="fill:none;stroke:#7187C4;stroke-width:1.5;stroke-linecap:square;" d="M41.531,4.139
	c0-1.872-1.521-3.389-3.394-3.389s-3.393,1.517-3.393,3.389l0.031,13.206c0,1.873-1.521,3.392-3.395,3.392
	c-1.875,0-3.392-1.519-3.392-3.392V4.139c0-1.872-1.521-3.389-3.39-3.389c-1.875,0-3.396,1.517-3.396,3.389l-0.08,13.206
	c0,1.873-1.519,3.392-3.391,3.392s-3.393-1.519-3.393-3.392V4.139c0-1.872-1.518-3.389-3.392-3.389C9.07,0.75,7.55,2.267,7.55,4.139
	L7.531,17.343c0,1.874-1.519,3.392-3.389,3.392c-1.875,0-3.392-1.518-3.392-3.392"/>
</svg>
